<svg width="192" height="192" viewBox="0 0 192 192" fill="none" xmlns="http://www.w3.org/2000/svg">
<g clip-path="url(#clip0_3_7)">
<path d="M211.2 -19.2H-19.2V211.2H211.2V-19.2Z" fill="white"/>
<path d="M211.2 -19.2H-19.2V211.2H211.2V-19.2Z" fill="url(#paint0_radial_3_7)"/>
<path fill-rule="evenodd" clip-rule="evenodd" d="M33.54 49.61C33.49 49.66 33.45 51.416 33.45 53.512C33.45 56.67 33.502 57.624 33.754 59.074C34.646 64.186 36.444 67.9 39.276 70.474C42.262 73.19 45.848 75.062 51.074 76.636C52.422 77.042 57.496 78 58.298 78C59.18 78 59.87 78.164 59.806 78.356C59.582 79.03 52.316 79.546 48.9 79.132C47.044 78.908 43.22 77.962 42.406 77.526C41.538 77.062 41.788 78.6 42.982 81.074C44.144 83.48 45.16 84.924 46.942 86.704C50.148 89.906 52.736 91.11 57.75 91.738C59.232 91.922 60.298 91.964 61.724 91.894C63.698 91.798 67.318 91.446 68.212 91.262C68.604 91.182 68.7 91.21 68.7 91.408C68.7 91.95 65.44 93.622 63.074 94.294C61.916 94.622 60.136 94.95 59.508 94.95C58.786 94.95 58.596 95.318 59.114 95.716C59.97 96.376 62.34 97.718 63.712 98.324C66.114 99.38 68.546 99.95 71.77 100.214C72.84 100.302 73.768 100.406 73.832 100.446C74.054 100.582 73.948 101.204 73.42 102.872C71.816 107.94 68.636 113.558 65.08 117.604C63.772 119.094 60.97 121.86 59.55 123.066C59.096 123.45 58.724 123.846 58.724 123.946C58.724 124.044 58.936 124.146 59.192 124.17C59.684 124.218 63.726 123.636 65.774 123.222C68.756 122.62 70.632 122.212 71.324 122.016C74.158 121.212 77.21 120.256 78.15 119.878C78.356 119.796 78.896 119.582 79.35 119.402C82.36 118.214 86.404 116.092 89.174 114.25C92.334 112.15 95.062 109.842 98.024 106.768C102.63 101.986 105.802 97.302 108.268 91.634C109.362 89.118 110.064 86.884 111.468 81.45C112.714 76.632 113.656 74.318 115.474 71.626C117.788 68.196 120.262 66.188 123.926 64.77C124.82 64.424 125.55 64.064 125.55 63.97C125.55 63.76 121.41 59.916 120.24 59.044C117.384 56.906 115.286 56.206 111.75 56.21C107.64 56.214 104.194 57.212 101.042 59.31C97.71 61.526 94.336 66.044 91.872 71.588C91.494 72.436 91.206 72.898 91.056 72.892C90.93 72.886 90.54 72.522 90.19 72.078C88.454 69.88 83.746 67.314 77.85 65.354C74.818 64.346 73.03 63.942 64.724 62.392C63.818 62.224 62.772 62.022 62.4 61.944C62.028 61.866 61.32 61.738 60.824 61.658C56.008 60.884 49.95 59.292 46.274 57.832C41.19 55.814 37.026 53.162 34.682 50.45C34.002 49.662 33.706 49.444 33.54 49.61ZM127.384 69.232C127.03 69.342 126.21 69.716 125.56 70.064C122.342 71.778 120.288 74.12 118.77 77.804C117.694 80.418 117.15 82.312 117.15 83.448C117.15 84.518 117.338 85.086 119.634 90.974C120.02 91.964 120.824 94.058 121.42 95.624C122.016 97.192 122.918 99.5 123.426 100.754C123.934 102.008 124.35 103.096 124.35 103.174C124.35 103.458 123.242 103.5 115.864 103.5H108.316L107.536 104.662C105.944 107.038 105.012 108.142 102.302 110.866C99.314 113.87 97.954 115.05 95.214 117.018C90.874 120.136 84.578 123.332 79.65 124.918C77.686 125.548 76.232 125.958 75.55 126.072C74.764 126.204 74.272 126.446 74.176 126.75C74.026 127.222 74.37 128.954 74.79 129.842C75.514 131.372 77.118 132.654 79.226 133.39C80.054 133.678 80.488 133.72 82.65 133.722C84.666 133.724 85.292 133.672 86.026 133.44C88.668 132.606 90.364 131.218 91.446 128.998C92.32 127.208 92.71 126.252 95.062 120.15L95.786 118.274L97.88 118.18C100.528 118.062 129.714 118.024 130.144 118.14C130.368 118.2 130.578 118.52 130.852 119.226C131.264 120.282 131.674 121.342 132.084 122.4C134.828 129.498 135.062 129.988 136.262 131.19C137.276 132.202 138.26 132.75 140.024 133.284C141.366 133.69 144.168 133.668 145.616 133.24C147.134 132.79 148.76 131.98 149.566 131.27C150.898 130.098 151.62 128.064 151.46 125.936C151.35 124.5 150.834 123.03 148.71 118.102C146.19 112.254 144.31 107.77 141.52 100.95C140.166 97.648 138.808 94.348 137.444 91.05C132.86 79.968 130.054 73.08 129.296 71.052C128.832 69.81 128.356 68.982 128.126 69.014C128.07 69.022 127.736 69.12 127.384 69.232Z" fill="white"/>
</g>
<defs>
<radialGradient id="paint0_radial_3_7" cx="0" cy="0" r="1" gradientUnits="userSpaceOnUse" gradientTransform="scale(271.529)">
<stop stop-color="#020202"/>
<stop offset="0.0078125" stop-color="#030303"/>
<stop offset="0.0117188" stop-color="#030303"/>
<stop offset="0.015625" stop-color="#040304"/>
<stop offset="0.0195312" stop-color="#040404"/>
<stop offset="0.0234375" stop-color="#040404"/>
<stop offset="0.0273438" stop-color="#050405"/>
<stop offset="0.03125" stop-color="#050505"/>
<stop offset="0.0351562" stop-color="#050505"/>
<stop offset="0.0390625" stop-color="#060506"/>
<stop offset="0.0429688" stop-color="#060606"/>
<stop offset="0.046875" stop-color="#060606"/>
<stop offset="0.0507812" stop-color="#070607"/>
<stop offset="0.0546875" stop-color="#070707"/>
<stop offset="0.0585938" stop-color="#070707"/>
<stop offset="0.0625" stop-color="#080708"/>
<stop offset="0.0664062" stop-color="#080708"/>
<stop offset="0.0703125" stop-color="#080808"/>
<stop offset="0.0742188" stop-color="#090809"/>
<stop offset="0.078125" stop-color="#090809"/>
<stop offset="0.0820312" stop-color="#0A090A"/>
<stop offset="0.0859375" stop-color="#0A090A"/>
<stop offset="0.0898438" stop-color="#0A090A"/>
<stop offset="0.09375" stop-color="#0B0A0B"/>
<stop offset="0.0976562" stop-color="#0B0A0B"/>
<stop offset="0.101562" stop-color="#0B0A0B"/>
<stop offset="0.105469" stop-color="#0C0B0C"/>
<stop offset="0.109375" stop-color="#0C0B0C"/>
<stop offset="0.113281" stop-color="#0C0B0C"/>
<stop offset="0.117188" stop-color="#0D0C0D"/>
<stop offset="0.121094" stop-color="#0D0C0D"/>
<stop offset="0.125" stop-color="#0D0C0D"/>
<stop offset="0.128906" stop-color="#0E0C0E"/>
<stop offset="0.132812" stop-color="#0E0D0E"/>
<stop offset="0.136719" stop-color="#0E0D0E"/>
<stop offset="0.140625" stop-color="#0F0D0F"/>
<stop offset="0.144531" stop-color="#0F0E0F"/>
<stop offset="0.148438" stop-color="#100E10"/>
<stop offset="0.152344" stop-color="#100E10"/>
<stop offset="0.15625" stop-color="#100F10"/>
<stop offset="0.160156" stop-color="#110F11"/>
<stop offset="0.164062" stop-color="#110F11"/>
<stop offset="0.167969" stop-color="#111011"/>
<stop offset="0.171875" stop-color="#121012"/>
<stop offset="0.175781" stop-color="#121012"/>
<stop offset="0.179688" stop-color="#121112"/>
<stop offset="0.183594" stop-color="#131113"/>
<stop offset="0.1875" stop-color="#131113"/>
<stop offset="0.191406" stop-color="#141214"/>
<stop offset="0.203125" stop-color="#141214"/>
<stop offset="0.214844" stop-color="#151315"/>
<stop offset="0.226562" stop-color="#161316"/>
<stop offset="0.238281" stop-color="#161416"/>
<stop offset="0.25" stop-color="#171517"/>
<stop offset="0.261719" stop-color="#181518"/>
<stop offset="0.269531" stop-color="#181518"/>
<stop offset="0.277344" stop-color="#181618"/>
<stop offset="0.285156" stop-color="#191619"/>
<stop offset="0.292969" stop-color="#191619"/>
<stop offset="0.300781" stop-color="#1A171A"/>
<stop offset="0.308594" stop-color="#1A171A"/>
<stop offset="0.316406" stop-color="#1B171B"/>
<stop offset="0.324219" stop-color="#1B181B"/>
<stop offset="0.332031" stop-color="#1B181B"/>
<stop offset="0.339844" stop-color="#1C181C"/>
<stop offset="0.347656" stop-color="#1C191C"/>
<stop offset="0.355469" stop-color="#1D191D"/>
<stop offset="0.363281" stop-color="#1D1A1D"/>
<stop offset="0.371094" stop-color="#1E1A1E"/>
<stop offset="0.378906" stop-color="#1E1A1E"/>
<stop offset="0.394531" stop-color="#1F1B1F"/>
<stop offset="0.402344" stop-color="#1F1B20"/>
<stop offset="0.410156" stop-color="#201B21"/>
<stop offset="0.417969" stop-color="#211C22"/>
<stop offset="0.425781" stop-color="#211C23"/>
<stop offset="0.433594" stop-color="#221C24"/>
<stop offset="0.441406" stop-color="#221D24"/>
<stop offset="0.449219" stop-color="#231D25"/>
<stop offset="0.457031" stop-color="#231D26"/>
<stop offset="0.464844" stop-color="#241D27"/>
<stop offset="0.472656" stop-color="#241E28"/>
<stop offset="0.480469" stop-color="#251E29"/>
<stop offset="0.488281" stop-color="#251E2A"/>
<stop offset="0.496094" stop-color="#261E2B"/>
<stop offset="0.503906" stop-color="#261F2C"/>
<stop offset="0.507812" stop-color="#271F2C"/>
<stop offset="0.511719" stop-color="#271F2D"/>
<stop offset="0.515625" stop-color="#271F2D"/>
<stop offset="0.519531" stop-color="#281F2E"/>
<stop offset="0.523438" stop-color="#281F2E"/>
<stop offset="0.527344" stop-color="#28202F"/>
<stop offset="0.53125" stop-color="#28202F"/>
<stop offset="0.535156" stop-color="#29202F"/>
<stop offset="0.539062" stop-color="#292030"/>
<stop offset="0.542969" stop-color="#292030"/>
<stop offset="0.546875" stop-color="#292031"/>
<stop offset="0.550781" stop-color="#2A2031"/>
<stop offset="0.554688" stop-color="#2A2032"/>
<stop offset="0.558594" stop-color="#2A2132"/>
<stop offset="0.5625" stop-color="#2B2133"/>
<stop offset="0.566406" stop-color="#2B2133"/>
<stop offset="0.570312" stop-color="#2B2134"/>
<stop offset="0.574219" stop-color="#2B2134"/>
<stop offset="0.578125" stop-color="#2C2135"/>
<stop offset="0.582031" stop-color="#2C2135"/>
<stop offset="0.585938" stop-color="#2C2236"/>
<stop offset="0.589844" stop-color="#2C2236"/>
<stop offset="0.59375" stop-color="#2D2236"/>
<stop offset="0.597656" stop-color="#2D2237"/>
<stop offset="0.601562" stop-color="#2D2238"/>
<stop offset="0.605469" stop-color="#2E2238"/>
<stop offset="0.609375" stop-color="#2E2339"/>
<stop offset="0.613281" stop-color="#2F2339"/>
<stop offset="0.617188" stop-color="#2F233A"/>
<stop offset="0.621094" stop-color="#2F233B"/>
<stop offset="0.625" stop-color="#30243B"/>
<stop offset="0.628906" stop-color="#30243C"/>
<stop offset="0.632812" stop-color="#30243D"/>
<stop offset="0.636719" stop-color="#31243D"/>
<stop offset="0.640625" stop-color="#31253E"/>
<stop offset="0.644531" stop-color="#32253E"/>
<stop offset="0.648438" stop-color="#32253F"/>
<stop offset="0.652344" stop-color="#322540"/>
<stop offset="0.65625" stop-color="#332540"/>
<stop offset="0.660156" stop-color="#332641"/>
<stop offset="0.664062" stop-color="#342642"/>
<stop offset="0.667969" stop-color="#342642"/>
<stop offset="0.671875" stop-color="#342643"/>
<stop offset="0.675781" stop-color="#352743"/>
<stop offset="0.679688" stop-color="#352744"/>
<stop offset="0.683594" stop-color="#362745"/>
<stop offset="0.6875" stop-color="#362745"/>
<stop offset="0.691406" stop-color="#362846"/>
<stop offset="0.695312" stop-color="#372847"/>
<stop offset="0.699219" stop-color="#372847"/>
<stop offset="0.703125" stop-color="#382848"/>
<stop offset="0.707031" stop-color="#382948"/>
<stop offset="0.710938" stop-color="#382949"/>
<stop offset="0.714844" stop-color="#39294A"/>
<stop offset="0.71875" stop-color="#39294A"/>
<stop offset="0.722656" stop-color="#39294B"/>
<stop offset="0.726562" stop-color="#3A2A4C"/>
<stop offset="0.730469" stop-color="#3A2A4C"/>
<stop offset="0.734375" stop-color="#3B2A4D"/>
<stop offset="0.738281" stop-color="#3B2A4D"/>
<stop offset="0.742188" stop-color="#3B2B4E"/>
<stop offset="0.746094" stop-color="#3C2B4F"/>
<stop offset="0.75" stop-color="#3C2B4F"/>
<stop offset="0.753906" stop-color="#3D2B50"/>
<stop offset="0.757812" stop-color="#3D2C51"/>
<stop offset="0.761719" stop-color="#3D2C51"/>
<stop offset="0.765625" stop-color="#3E2C52"/>
<stop offset="0.769531" stop-color="#3E2C52"/>
<stop offset="0.773438" stop-color="#3F2D53"/>
<stop offset="0.777344" stop-color="#3F2D54"/>
<stop offset="0.78125" stop-color="#3F2D54"/>
<stop offset="0.785156" stop-color="#402D55"/>
<stop offset="0.789062" stop-color="#402D56"/>
<stop offset="0.792969" stop-color="#402E56"/>
<stop offset="0.796875" stop-color="#412E57"/>
<stop offset="0.800781" stop-color="#412E57"/>
<stop offset="0.804688" stop-color="#422E58"/>
<stop offset="0.808594" stop-color="#422E59"/>
<stop offset="0.8125" stop-color="#422F59"/>
<stop offset="0.816406" stop-color="#432F5A"/>
<stop offset="0.820312" stop-color="#432F5A"/>
<stop offset="0.824219" stop-color="#432F5B"/>
<stop offset="0.828125" stop-color="#442F5C"/>
<stop offset="0.832031" stop-color="#44305C"/>
<stop offset="0.835938" stop-color="#45305D"/>
<stop offset="0.839844" stop-color="#45305D"/>
<stop offset="0.84375" stop-color="#45305E"/>
<stop offset="0.847656" stop-color="#46305F"/>
<stop offset="0.851562" stop-color="#46305F"/>
<stop offset="0.855469" stop-color="#463160"/>
<stop offset="0.859375" stop-color="#473161"/>
<stop offset="0.863281" stop-color="#473161"/>
<stop offset="0.867188" stop-color="#483162"/>
<stop offset="0.871094" stop-color="#483162"/>
<stop offset="0.875" stop-color="#483163"/>
<stop offset="0.878906" stop-color="#493264"/>
<stop offset="0.882812" stop-color="#493264"/>
<stop offset="0.886719" stop-color="#493265"/>
<stop offset="0.890625" stop-color="#4A3265"/>
<stop offset="0.894531" stop-color="#4A3266"/>
<stop offset="0.898438" stop-color="#4B3367"/>
<stop offset="0.902344" stop-color="#4B3367"/>
<stop offset="0.90625" stop-color="#4B3368"/>
<stop offset="0.910156" stop-color="#4C3368"/>
<stop offset="0.914062" stop-color="#4C3369"/>
<stop offset="0.917969" stop-color="#4C336A"/>
<stop offset="0.921875" stop-color="#4D346A"/>
<stop offset="0.925781" stop-color="#4D346B"/>
<stop offset="0.929688" stop-color="#4E346B"/>
<stop offset="0.933594" stop-color="#4E346C"/>
<stop offset="0.9375" stop-color="#4E346D"/>
<stop offset="0.941406" stop-color="#4F346D"/>
<stop offset="0.945312" stop-color="#4F356E"/>
<stop offset="0.949219" stop-color="#4F356E"/>
<stop offset="0.953125" stop-color="#50356F"/>
<stop offset="0.957031" stop-color="#503570"/>
<stop offset="0.960938" stop-color="#503570"/>
<stop offset="0.964844" stop-color="#513671"/>
<stop offset="0.96875" stop-color="#513671"/>
<stop offset="0.972656" stop-color="#523672"/>
<stop offset="0.976562" stop-color="#523673"/>
<stop offset="0.980469" stop-color="#523673"/>
<stop offset="0.984375" stop-color="#533674"/>
<stop offset="0.988281" stop-color="#533774"/>
<stop offset="0.992188" stop-color="#533775"/>
<stop offset="0.996094" stop-color="#543776"/>
<stop offset="1" stop-color="#543776"/>
</radialGradient>
<clipPath id="clip0_3_7">
<rect width="192" height="192" fill="white"/>
</clipPath>
</defs>
</svg>
