<svg width="512" height="512" viewBox="0 0 512 512" fill="none" xmlns="http://www.w3.org/2000/svg">
<g clip-path="url(#clip0_4_15)">
<path d="M563.2 -51.2H-51.2V563.2H563.2V-51.2Z" fill="white"/>
<path d="M563.2 -51.2H-51.2V563.2H563.2V-51.2Z" fill="black"/>
<path fill-rule="evenodd" clip-rule="evenodd" d="M89.44 132.293C89.3066 132.427 89.2 137.109 89.2 142.699C89.2 151.12 89.3386 153.664 90.0106 157.531C92.3893 171.163 97.184 181.067 104.736 187.931C112.699 195.173 122.261 200.165 136.197 204.363C139.792 205.445 153.323 208 155.461 208C157.813 208 159.653 208.437 159.483 208.949C158.885 210.747 139.509 212.123 130.4 211.019C125.451 210.421 115.253 207.899 113.083 206.736C110.768 205.499 111.435 209.6 114.619 216.197C117.717 222.613 120.427 226.464 125.179 231.211C133.728 239.749 140.629 242.96 154 244.635C157.952 245.125 160.795 245.237 164.597 245.051C169.861 244.795 179.515 243.856 181.899 243.365C182.944 243.152 183.2 243.227 183.2 243.755C183.2 245.2 174.507 249.659 168.197 251.451C165.109 252.325 160.363 253.2 158.688 253.2C156.763 253.2 156.256 254.181 157.637 255.243C159.92 257.003 166.24 260.581 169.899 262.197C176.304 265.013 182.789 266.533 191.387 267.237C194.24 267.472 196.715 267.749 196.885 267.856C197.477 268.219 197.195 269.877 195.787 274.325C191.509 287.84 183.029 302.821 173.547 313.611C170.059 317.584 162.587 324.96 158.8 328.176C157.589 329.2 156.597 330.256 156.597 330.523C156.597 330.784 157.163 331.056 157.845 331.12C159.157 331.248 169.936 329.696 175.397 328.592C183.349 326.987 188.352 325.899 190.197 325.376C197.755 323.232 205.893 320.683 208.4 319.675C208.949 319.456 210.389 318.885 211.6 318.405C219.627 315.237 230.411 309.579 237.797 304.667C246.224 299.067 253.499 292.912 261.397 284.715C273.68 271.963 282.139 259.472 288.715 244.357C291.632 237.648 293.504 231.691 297.248 217.2C300.571 204.352 303.083 198.181 307.931 191.003C314.101 181.856 320.699 176.501 330.469 172.72C332.853 171.797 334.8 170.837 334.8 170.587C334.8 170.027 323.76 159.776 320.64 157.451C313.024 151.749 307.429 149.883 298 149.893C287.04 149.904 277.851 152.565 269.445 158.16C260.56 164.069 251.563 176.117 244.992 190.901C243.984 193.163 243.216 194.395 242.816 194.379C242.48 194.363 241.44 193.392 240.507 192.208C235.877 186.347 223.323 179.504 207.6 174.277C199.515 171.589 194.747 170.512 172.597 166.379C170.181 165.931 167.392 165.392 166.4 165.184C165.408 164.976 163.52 164.635 162.197 164.421C149.355 162.357 133.2 158.112 123.397 154.219C109.84 148.837 98.736 141.765 92.4853 134.533C90.672 132.432 89.8826 131.851 89.44 132.293ZM339.691 184.619C338.747 184.912 336.56 185.909 334.827 186.837C326.245 191.408 320.768 197.653 316.72 207.477C313.851 214.448 312.4 219.499 312.4 222.528C312.4 225.381 312.901 226.896 319.024 242.597C320.053 245.237 322.197 250.821 323.787 254.997C325.376 259.179 327.781 265.333 329.136 268.677C330.491 272.021 331.6 274.923 331.6 275.131C331.6 275.888 328.645 276 308.971 276H288.843L286.763 279.099C282.517 285.435 280.032 288.379 272.805 295.643C264.837 303.653 261.211 306.8 253.904 312.048C242.331 320.363 225.541 328.885 212.4 333.115C207.163 334.795 203.285 335.888 201.467 336.192C199.371 336.544 198.059 337.189 197.803 338C197.403 339.259 198.32 343.877 199.44 346.245C201.371 350.325 205.648 353.744 211.269 355.707C213.477 356.475 214.635 356.587 220.4 356.592C225.776 356.597 227.445 356.459 229.403 355.84C236.448 353.616 240.971 349.915 243.856 343.995C246.187 339.221 247.227 336.672 253.499 320.4L255.429 315.397L261.013 315.147C268.075 314.832 345.904 314.731 347.051 315.04C347.648 315.2 348.208 316.053 348.939 317.936C350.037 320.752 351.131 323.579 352.224 326.4C359.541 345.328 360.165 346.635 363.365 349.84C366.069 352.539 368.693 354 373.397 355.424C376.976 356.507 384.448 356.448 388.309 355.307C392.357 354.107 396.693 351.947 398.843 350.053C402.395 346.928 404.32 341.504 403.893 335.829C403.6 332 402.224 328.08 396.56 314.939C389.84 299.344 384.827 287.387 377.387 269.2C373.776 260.395 370.155 251.595 366.517 242.8C354.293 213.248 346.811 194.88 344.789 189.472C343.552 186.16 342.283 183.952 341.669 184.037C341.52 184.059 340.629 184.32 339.691 184.619Z" fill="white"/>
</g>
<defs>
<clipPath id="clip0_4_15">
<rect width="512" height="512" fill="white"/>
</clipPath>
</defs>
</svg>
