<svg width="192" height="192" viewBox="0 0 192 192" fill="none" xmlns="http://www.w3.org/2000/svg">
<g clip-path="url(#clip0_9_19)">
<path d="M211.2 -19.2H-19.2V211.2H211.2V-19.2Z" fill="white"/>
<path d="M211.2 -19.2H-19.2V211.2H211.2V-19.2Z" fill="url(#paint0_radial_9_19)"/>
<path fill-rule="evenodd" clip-rule="evenodd" d="M14.0159 35.11C13.9499 35.174 13.8979 37.478 13.8979 40.23C13.8979 44.376 13.9659 45.628 14.2979 47.532C15.4679 54.242 17.8279 59.116 21.5439 62.496C25.4659 66.06 30.1699 68.518 37.0319 70.584C38.7999 71.116 45.4619 72.374 46.5139 72.374C47.6719 72.374 48.5759 72.588 48.4919 72.842C48.1979 73.724 38.6599 74.404 34.1779 73.86C31.7419 73.564 26.7199 72.322 25.6539 71.752C24.5139 71.142 24.8419 73.162 26.4099 76.41C27.9339 79.566 29.2679 81.462 31.6079 83.798C35.8159 88 39.2119 89.582 45.7939 90.404C47.7379 90.648 49.1379 90.702 51.0099 90.612C53.6019 90.484 58.3519 90.022 59.5259 89.782C60.0419 89.676 60.1659 89.712 60.1659 89.972C60.1659 90.684 55.8879 92.878 52.7819 93.76C51.2619 94.192 48.9259 94.622 48.0999 94.622C47.1519 94.622 46.9039 95.104 47.5839 95.628C48.7079 96.492 51.8179 98.256 53.6199 99.048C56.7719 100.436 59.9639 101.184 64.1959 101.53C65.5999 101.646 66.8179 101.782 66.9039 101.834C67.1939 102.014 67.0559 102.83 66.3619 105.02C64.2559 111.67 60.0799 119.046 55.4159 124.358C53.6979 126.314 50.0219 129.944 48.1559 131.526C47.5599 132.03 47.0739 132.55 47.0739 132.68C47.0739 132.81 47.3499 132.942 47.6879 132.976C48.3319 133.038 53.6379 132.274 56.3259 131.73C60.2399 130.94 62.7019 130.404 63.6119 130.146C67.3319 129.092 71.3379 127.838 72.5699 127.342C72.8399 127.234 73.5499 126.952 74.1459 126.716C78.0959 125.156 83.4059 122.372 87.0419 119.954C91.1879 117.196 94.7679 114.17 98.6559 110.134C104.702 103.858 108.864 97.71 112.1 90.27C113.538 86.966 114.46 84.034 116.302 76.902C117.936 70.576 119.174 67.54 121.56 64.006C124.598 59.504 127.846 56.87 132.654 55.008C133.828 54.554 134.786 54.08 134.786 53.958C134.786 53.682 129.35 48.638 127.818 47.49C124.068 44.686 121.314 43.768 116.672 43.772C111.276 43.778 106.756 45.086 102.616 47.84C98.2439 50.75 93.8159 56.678 90.5799 63.956C90.0859 65.07 89.7079 65.676 89.5099 65.668C89.3439 65.662 88.8319 65.182 88.3739 64.6C86.0959 61.714 79.9159 58.346 72.1759 55.774C68.1959 54.45 65.8499 53.922 54.9479 51.888C53.7579 51.666 52.3839 51.4 51.8959 51.298C51.4099 51.198 50.4799 51.028 49.8299 50.924C43.5059 49.908 35.5559 47.816 30.7319 45.902C24.0559 43.254 18.5899 39.772 15.5159 36.21C14.6239 35.176 14.2339 34.892 14.0159 35.11ZM137.192 60.864C136.73 61.01 135.652 61.5 134.798 61.956C130.574 64.206 127.88 67.28 125.888 72.114C124.474 75.546 123.76 78.034 123.76 79.526C123.76 80.928 124.006 81.674 127.022 89.404C127.528 90.704 128.582 93.45 129.364 95.508C130.148 97.564 131.332 100.594 132 102.24C132.666 103.886 133.212 105.314 133.212 105.414C133.212 105.788 131.758 105.844 122.072 105.844H112.164L111.142 107.37C109.05 110.488 107.828 111.938 104.272 115.512C100.35 119.454 98.5639 121.004 94.9679 123.588C89.2719 127.68 81.0079 131.874 74.5379 133.956C71.9619 134.784 70.0519 135.322 69.1559 135.472C68.1239 135.644 67.4799 135.962 67.3519 136.36C67.1559 136.98 67.6079 139.254 68.1579 140.42C69.1079 142.428 71.2139 144.112 73.9819 145.076C75.0699 145.456 75.6399 145.51 78.4759 145.514C81.1239 145.516 81.9439 145.448 82.9059 145.144C86.3759 144.048 88.5999 142.224 90.0219 139.312C91.1699 136.962 91.6819 135.708 94.7699 127.698L95.7179 125.238L98.4679 125.114C101.944 124.958 140.252 124.908 140.816 125.06C141.11 125.138 141.386 125.56 141.746 126.484C142.286 127.872 142.826 129.262 143.362 130.652C146.964 139.968 147.27 140.612 148.848 142.19C150.176 143.518 151.468 144.238 153.786 144.938C155.546 145.472 159.224 145.442 161.126 144.88C163.118 144.29 165.25 143.226 166.31 142.294C168.058 140.756 169.006 138.088 168.794 135.292C168.652 133.408 167.974 131.478 165.186 125.01C161.878 117.334 159.41 111.448 155.748 102.496C153.97 98.162 152.188 93.832 150.396 89.502C144.38 74.956 140.698 65.916 139.704 63.254C139.094 61.622 138.47 60.536 138.168 60.58C138.094 60.59 137.656 60.718 137.192 60.864Z" fill="#DCE1D8"/>
</g>
<defs>
<radialGradient id="paint0_radial_9_19" cx="0" cy="0" r="1" gradientUnits="userSpaceOnUse" gradientTransform="scale(271.529)">
<stop stop-color="#020202"/>
<stop offset="0.0078125" stop-color="#030303"/>
<stop offset="0.0117188" stop-color="#030303"/>
<stop offset="0.015625" stop-color="#040304"/>
<stop offset="0.0195312" stop-color="#040404"/>
<stop offset="0.0234375" stop-color="#040404"/>
<stop offset="0.0273438" stop-color="#050405"/>
<stop offset="0.03125" stop-color="#050505"/>
<stop offset="0.0351562" stop-color="#050505"/>
<stop offset="0.0390625" stop-color="#060506"/>
<stop offset="0.0429688" stop-color="#060606"/>
<stop offset="0.046875" stop-color="#060606"/>
<stop offset="0.0507812" stop-color="#070607"/>
<stop offset="0.0546875" stop-color="#070707"/>
<stop offset="0.0585938" stop-color="#070707"/>
<stop offset="0.0625" stop-color="#080708"/>
<stop offset="0.0664062" stop-color="#080708"/>
<stop offset="0.0703125" stop-color="#080808"/>
<stop offset="0.0742188" stop-color="#090809"/>
<stop offset="0.078125" stop-color="#090809"/>
<stop offset="0.0820312" stop-color="#0A090A"/>
<stop offset="0.0859375" stop-color="#0A090A"/>
<stop offset="0.0898438" stop-color="#0A090A"/>
<stop offset="0.09375" stop-color="#0B0A0B"/>
<stop offset="0.0976562" stop-color="#0B0A0B"/>
<stop offset="0.101562" stop-color="#0B0A0B"/>
<stop offset="0.105469" stop-color="#0C0B0C"/>
<stop offset="0.109375" stop-color="#0C0B0C"/>
<stop offset="0.113281" stop-color="#0C0B0C"/>
<stop offset="0.117188" stop-color="#0D0C0D"/>
<stop offset="0.121094" stop-color="#0D0C0D"/>
<stop offset="0.125" stop-color="#0D0C0D"/>
<stop offset="0.128906" stop-color="#0E0C0E"/>
<stop offset="0.132812" stop-color="#0E0D0E"/>
<stop offset="0.136719" stop-color="#0E0D0E"/>
<stop offset="0.140625" stop-color="#0F0D0F"/>
<stop offset="0.144531" stop-color="#0F0E0F"/>
<stop offset="0.148438" stop-color="#100E10"/>
<stop offset="0.152344" stop-color="#100E10"/>
<stop offset="0.15625" stop-color="#100F10"/>
<stop offset="0.160156" stop-color="#110F11"/>
<stop offset="0.164062" stop-color="#110F11"/>
<stop offset="0.167969" stop-color="#111011"/>
<stop offset="0.171875" stop-color="#121012"/>
<stop offset="0.175781" stop-color="#121012"/>
<stop offset="0.179688" stop-color="#121112"/>
<stop offset="0.183594" stop-color="#131113"/>
<stop offset="0.1875" stop-color="#131113"/>
<stop offset="0.191406" stop-color="#141214"/>
<stop offset="0.203125" stop-color="#141214"/>
<stop offset="0.214844" stop-color="#151315"/>
<stop offset="0.226562" stop-color="#161316"/>
<stop offset="0.238281" stop-color="#161416"/>
<stop offset="0.25" stop-color="#171517"/>
<stop offset="0.261719" stop-color="#181518"/>
<stop offset="0.269531" stop-color="#181518"/>
<stop offset="0.277344" stop-color="#181618"/>
<stop offset="0.285156" stop-color="#191619"/>
<stop offset="0.292969" stop-color="#191619"/>
<stop offset="0.300781" stop-color="#1A171A"/>
<stop offset="0.308594" stop-color="#1A171A"/>
<stop offset="0.316406" stop-color="#1B171B"/>
<stop offset="0.324219" stop-color="#1B181B"/>
<stop offset="0.332031" stop-color="#1B181B"/>
<stop offset="0.339844" stop-color="#1C181C"/>
<stop offset="0.347656" stop-color="#1C191C"/>
<stop offset="0.355469" stop-color="#1D191D"/>
<stop offset="0.363281" stop-color="#1D1A1D"/>
<stop offset="0.371094" stop-color="#1E1A1E"/>
<stop offset="0.378906" stop-color="#1E1A1E"/>
<stop offset="0.394531" stop-color="#1F1B1F"/>
<stop offset="0.402344" stop-color="#1F1B20"/>
<stop offset="0.410156" stop-color="#201B21"/>
<stop offset="0.417969" stop-color="#211C22"/>
<stop offset="0.425781" stop-color="#211C23"/>
<stop offset="0.433594" stop-color="#221C24"/>
<stop offset="0.441406" stop-color="#221D24"/>
<stop offset="0.449219" stop-color="#231D25"/>
<stop offset="0.457031" stop-color="#231D26"/>
<stop offset="0.464844" stop-color="#241D27"/>
<stop offset="0.472656" stop-color="#241E28"/>
<stop offset="0.480469" stop-color="#251E29"/>
<stop offset="0.488281" stop-color="#251E2A"/>
<stop offset="0.496094" stop-color="#261E2B"/>
<stop offset="0.503906" stop-color="#261F2C"/>
<stop offset="0.507812" stop-color="#271F2C"/>
<stop offset="0.511719" stop-color="#271F2D"/>
<stop offset="0.515625" stop-color="#271F2D"/>
<stop offset="0.519531" stop-color="#281F2E"/>
<stop offset="0.523438" stop-color="#281F2E"/>
<stop offset="0.527344" stop-color="#28202F"/>
<stop offset="0.53125" stop-color="#28202F"/>
<stop offset="0.535156" stop-color="#29202F"/>
<stop offset="0.539062" stop-color="#292030"/>
<stop offset="0.542969" stop-color="#292030"/>
<stop offset="0.546875" stop-color="#292031"/>
<stop offset="0.550781" stop-color="#2A2031"/>
<stop offset="0.554688" stop-color="#2A2032"/>
<stop offset="0.558594" stop-color="#2A2132"/>
<stop offset="0.5625" stop-color="#2B2133"/>
<stop offset="0.566406" stop-color="#2B2133"/>
<stop offset="0.570312" stop-color="#2B2134"/>
<stop offset="0.574219" stop-color="#2B2134"/>
<stop offset="0.578125" stop-color="#2C2135"/>
<stop offset="0.582031" stop-color="#2C2135"/>
<stop offset="0.585938" stop-color="#2C2236"/>
<stop offset="0.589844" stop-color="#2C2236"/>
<stop offset="0.59375" stop-color="#2D2236"/>
<stop offset="0.597656" stop-color="#2D2237"/>
<stop offset="0.601562" stop-color="#2D2238"/>
<stop offset="0.605469" stop-color="#2E2238"/>
<stop offset="0.609375" stop-color="#2E2339"/>
<stop offset="0.613281" stop-color="#2F2339"/>
<stop offset="0.617188" stop-color="#2F233A"/>
<stop offset="0.621094" stop-color="#2F233B"/>
<stop offset="0.625" stop-color="#30243B"/>
<stop offset="0.628906" stop-color="#30243C"/>
<stop offset="0.632812" stop-color="#30243D"/>
<stop offset="0.636719" stop-color="#31243D"/>
<stop offset="0.640625" stop-color="#31253E"/>
<stop offset="0.644531" stop-color="#32253E"/>
<stop offset="0.648438" stop-color="#32253F"/>
<stop offset="0.652344" stop-color="#322540"/>
<stop offset="0.65625" stop-color="#332540"/>
<stop offset="0.660156" stop-color="#332641"/>
<stop offset="0.664062" stop-color="#342642"/>
<stop offset="0.667969" stop-color="#342642"/>
<stop offset="0.671875" stop-color="#342643"/>
<stop offset="0.675781" stop-color="#352743"/>
<stop offset="0.679688" stop-color="#352744"/>
<stop offset="0.683594" stop-color="#362745"/>
<stop offset="0.6875" stop-color="#362745"/>
<stop offset="0.691406" stop-color="#362846"/>
<stop offset="0.695312" stop-color="#372847"/>
<stop offset="0.699219" stop-color="#372847"/>
<stop offset="0.703125" stop-color="#382848"/>
<stop offset="0.707031" stop-color="#382948"/>
<stop offset="0.710938" stop-color="#382949"/>
<stop offset="0.714844" stop-color="#39294A"/>
<stop offset="0.71875" stop-color="#39294A"/>
<stop offset="0.722656" stop-color="#39294B"/>
<stop offset="0.726562" stop-color="#3A2A4C"/>
<stop offset="0.730469" stop-color="#3A2A4C"/>
<stop offset="0.734375" stop-color="#3B2A4D"/>
<stop offset="0.738281" stop-color="#3B2A4D"/>
<stop offset="0.742188" stop-color="#3B2B4E"/>
<stop offset="0.746094" stop-color="#3C2B4F"/>
<stop offset="0.75" stop-color="#3C2B4F"/>
<stop offset="0.753906" stop-color="#3D2B50"/>
<stop offset="0.757812" stop-color="#3D2C51"/>
<stop offset="0.761719" stop-color="#3D2C51"/>
<stop offset="0.765625" stop-color="#3E2C52"/>
<stop offset="0.769531" stop-color="#3E2C52"/>
<stop offset="0.773438" stop-color="#3F2D53"/>
<stop offset="0.777344" stop-color="#3F2D54"/>
<stop offset="0.78125" stop-color="#3F2D54"/>
<stop offset="0.785156" stop-color="#402D55"/>
<stop offset="0.789062" stop-color="#402D56"/>
<stop offset="0.792969" stop-color="#402E56"/>
<stop offset="0.796875" stop-color="#412E57"/>
<stop offset="0.800781" stop-color="#412E57"/>
<stop offset="0.804688" stop-color="#422E58"/>
<stop offset="0.808594" stop-color="#422E59"/>
<stop offset="0.8125" stop-color="#422F59"/>
<stop offset="0.816406" stop-color="#432F5A"/>
<stop offset="0.820312" stop-color="#432F5A"/>
<stop offset="0.824219" stop-color="#432F5B"/>
<stop offset="0.828125" stop-color="#442F5C"/>
<stop offset="0.832031" stop-color="#44305C"/>
<stop offset="0.835938" stop-color="#45305D"/>
<stop offset="0.839844" stop-color="#45305D"/>
<stop offset="0.84375" stop-color="#45305E"/>
<stop offset="0.847656" stop-color="#46305F"/>
<stop offset="0.851562" stop-color="#46305F"/>
<stop offset="0.855469" stop-color="#463160"/>
<stop offset="0.859375" stop-color="#473161"/>
<stop offset="0.863281" stop-color="#473161"/>
<stop offset="0.867188" stop-color="#483162"/>
<stop offset="0.871094" stop-color="#483162"/>
<stop offset="0.875" stop-color="#483163"/>
<stop offset="0.878906" stop-color="#493264"/>
<stop offset="0.882812" stop-color="#493264"/>
<stop offset="0.886719" stop-color="#493265"/>
<stop offset="0.890625" stop-color="#4A3265"/>
<stop offset="0.894531" stop-color="#4A3266"/>
<stop offset="0.898438" stop-color="#4B3367"/>
<stop offset="0.902344" stop-color="#4B3367"/>
<stop offset="0.90625" stop-color="#4B3368"/>
<stop offset="0.910156" stop-color="#4C3368"/>
<stop offset="0.914062" stop-color="#4C3369"/>
<stop offset="0.917969" stop-color="#4C336A"/>
<stop offset="0.921875" stop-color="#4D346A"/>
<stop offset="0.925781" stop-color="#4D346B"/>
<stop offset="0.929688" stop-color="#4E346B"/>
<stop offset="0.933594" stop-color="#4E346C"/>
<stop offset="0.9375" stop-color="#4E346D"/>
<stop offset="0.941406" stop-color="#4F346D"/>
<stop offset="0.945312" stop-color="#4F356E"/>
<stop offset="0.949219" stop-color="#4F356E"/>
<stop offset="0.953125" stop-color="#50356F"/>
<stop offset="0.957031" stop-color="#503570"/>
<stop offset="0.960938" stop-color="#503570"/>
<stop offset="0.964844" stop-color="#513671"/>
<stop offset="0.96875" stop-color="#513671"/>
<stop offset="0.972656" stop-color="#523672"/>
<stop offset="0.976562" stop-color="#523673"/>
<stop offset="0.980469" stop-color="#523673"/>
<stop offset="0.984375" stop-color="#533674"/>
<stop offset="0.988281" stop-color="#533774"/>
<stop offset="0.992188" stop-color="#533775"/>
<stop offset="0.996094" stop-color="#543776"/>
<stop offset="1" stop-color="#543776"/>
</radialGradient>
<clipPath id="clip0_9_19">
<rect width="192" height="192" fill="white"/>
</clipPath>
</defs>
</svg>
