<svg xmlns="http://www.w3.org/2000/svg" xmlns:xlink="http://www.w3.org/1999/xlink" width="24" height="24" viewBox="140 160 70 70" preserveAspectRatio="xMidYMid meet" version="1.0"><path fill="#A1A1AA" d="M 197.453125 160.121094 C 196.386719 160.234375 195.09375 160.640625 194.15625 161.15625 C 193.652344 161.433594 192.832031 161.972656 192.492188 162.246094 C 191.648438 162.929688 189.855469 164.332031 189.429688 164.648438 C 189.152344 164.855469 188.6875 165.222656 188.402344 165.464844 C 188.117188 165.707031 187.480469 166.214844 186.988281 166.589844 C 186.496094 166.960938 185.410156 167.8125 184.570312 168.472656 C 183.730469 169.136719 182.941406 169.757812 182.8125 169.855469 C 182.6875 169.953125 182.148438 170.375 181.621094 170.800781 C 180.773438 171.480469 179.523438 172.433594 179.234375 172.621094 C 179.167969 172.664062 174.53125 172.699219 165.84375 172.722656 L 152.550781 172.761719 L 151.890625 172.90625 C 150.121094 173.292969 148.4375 174.042969 147.160156 175.011719 C 146.234375 175.710938 145.003906 176.988281 144.476562 177.796875 C 143.691406 179.003906 143.121094 180.273438 142.84375 181.449219 C 142.542969 182.71875 142.511719 183.425781 142.507812 189.007812 C 142.507812 194.210938 142.539062 195.140625 142.746094 196.269531 C 143.105469 198.226562 144.226562 200.359375 145.644531 201.796875 C 147.207031 203.378906 148.605469 204.269531 150.472656 204.863281 L 151.246094 205.109375 L 151.726562 206.28125 C 152.210938 207.46875 152.871094 209.011719 153.234375 209.8125 C 153.34375 210.058594 153.792969 211.117188 154.230469 212.167969 C 154.667969 213.222656 155.246094 214.589844 155.519531 215.210938 C 155.789062 215.832031 156.304688 217.054688 156.660156 217.929688 C 157.4375 219.835938 157.640625 220.257812 158.195312 221.082031 C 159.136719 222.488281 160.394531 223.671875 161.804688 224.484375 C 162.394531 224.820312 163.855469 225.457031 164.496094 225.652344 C 168.53125 226.890625 172.90625 225.894531 175.691406 223.109375 C 176.808594 221.992188 177.449219 220.953125 178.007812 219.351562 C 178.558594 217.757812 178.597656 216.550781 178.179688 213.71875 C 177.878906 211.652344 177.113281 205.828125 177.113281 205.578125 L 177.113281 205.425781 L 179.566406 205.425781 L 180.777344 206.238281 C 182.015625 207.070312 183.144531 207.820312 185.324219 209.261719 C 186.003906 209.710938 186.976562 210.359375 187.488281 210.703125 C 189.582031 212.125 192.765625 214.222656 193.351562 214.578125 C 194.421875 215.226562 195.320312 215.605469 196.464844 215.894531 C 197.117188 216.0625 197.257812 216.074219 198.558594 216.070312 C 199.898438 216.066406 199.976562 216.058594 200.722656 215.859375 C 202.132812 215.484375 203.53125 214.796875 204.503906 214.003906 C 206.328125 212.515625 207.605469 210.394531 208.035156 208.144531 C 208.09375 207.835938 208.167969 207.058594 208.203125 206.421875 C 208.277344 205.136719 208.269531 172.5 208.199219 170 C 208.136719 167.921875 207.960938 167.078125 207.28125 165.648438 C 206.746094 164.527344 205.816406 163.257812 205.035156 162.585938 C 202.796875 160.65625 200.238281 159.824219 197.453125 160.121094 M 197.511719 165.59375 C 196.746094 165.777344 196.207031 166.121094 194.382812 167.578125 C 193.183594 168.535156 191.3125 169.992188 190.636719 170.5 C 190.253906 170.789062 189.664062 171.253906 189.332031 171.535156 C 188.996094 171.816406 188.355469 172.324219 187.90625 172.660156 C 187.457031 172.996094 186.867188 173.457031 186.59375 173.683594 C 186.320312 173.910156 185.816406 174.308594 185.472656 174.570312 C 185.128906 174.832031 184.390625 175.410156 183.832031 175.855469 L 182.8125 176.667969 L 182.828125 188.90625 L 182.847656 201.148438 L 183.839844 201.8125 C 184.386719 202.179688 186.503906 203.601562 188.546875 204.96875 C 190.589844 206.335938 192.394531 207.546875 192.558594 207.660156 C 193.101562 208.042969 196.414062 210.207031 196.597656 210.300781 C 197.136719 210.578125 197.691406 210.695312 198.492188 210.699219 C 199.429688 210.699219 199.996094 210.550781 200.667969 210.117188 C 201.246094 209.746094 202.035156 208.90625 202.324219 208.355469 C 202.804688 207.441406 202.769531 209.121094 202.75 187.933594 L 202.734375 168.839844 L 202.546875 168.3125 C 202.324219 167.675781 201.925781 167.101562 201.34375 166.570312 C 200.539062 165.828125 199.632812 165.484375 198.527344 165.496094 C 198.179688 165.496094 197.722656 165.542969 197.511719 165.59375 M 152.882812 178.199219 C 152.210938 178.320312 151.996094 178.390625 151.425781 178.675781 C 150.28125 179.242188 149.125 180.382812 148.570312 181.488281 C 148.445312 181.734375 148.261719 182.199219 148.160156 182.519531 L 147.976562 183.101562 L 147.976562 194.976562 L 148.132812 195.574219 C 148.332031 196.332031 148.636719 196.988281 149.027344 197.503906 C 149.398438 197.996094 150.171875 198.738281 150.664062 199.074219 C 151.15625 199.410156 152.074219 199.773438 152.808594 199.925781 C 153.386719 200.046875 153.921875 200.050781 165.363281 200.050781 L 177.3125 200.050781 L 177.3125 178.09375 L 165.363281 178.101562 C 155.3125 178.105469 153.328125 178.121094 152.882812 178.199219 M 157.3125 205.542969 C 157.378906 205.753906 158.1875 207.6875 158.832031 209.175781 C 159.179688 209.976562 159.6875 211.1875 159.964844 211.859375 C 160.238281 212.535156 160.582031 213.355469 160.726562 213.683594 C 161.917969 216.429688 162.441406 217.597656 162.640625 217.980469 C 163.277344 219.191406 164.792969 220.246094 166.472656 220.636719 C 167.324219 220.832031 168.695312 220.832031 169.519531 220.628906 C 170.382812 220.414062 171 220.09375 171.554688 219.570312 C 172.382812 218.789062 172.859375 217.996094 173.011719 217.148438 C 173.113281 216.566406 173.066406 216.054688 172.574219 212.558594 C 172.121094 209.304688 171.980469 208.265625 171.808594 206.851562 C 171.730469 206.230469 171.65625 205.65625 171.636719 205.574219 L 171.609375 205.425781 L 164.441406 205.425781 C 157.648438 205.425781 157.277344 205.433594 157.3125 205.542969 " fill-opacity="1" fill-rule="evenodd"/></svg>